<svg width="800" height="600" viewBox="0 0 800 600" fill="none" xmlns="http://www.w3.org/2000/svg">
<rect width="800" height="600" fill="white"/>
<path d="M519.2 461.8L448.7 513C444.9 515.8 440.3 517.3 435.5 517.3H364.5C359.8 517.3 355.2 515.8 351.3 513L280.8 461.8C275 457.6 271.6 450.9 271.6 443.7V405.8H528.3V443.7C528.4 450.8 525 457.6 519.2 461.8Z" fill="#4F82A8"/>
<path d="M525 422.7H275C254.6 422.7 238 406 238 385.7V119C238 98.7 254.7 82 275 82H525C545.4 82 562 98.7 562 119V385.7C562 406.1 545.4 422.7 525 422.7Z" fill="#5F94C4"/>
<path d="M499.1 385.7H301C284.9 385.7 271.7 372.5 271.7 356.4V148.3C271.7 132.2 284.8 119 301 119H499.1C515.2 119 528.4 132.2 528.4 148.3V356.4C528.4 372.5 515.2 385.7 499.1 385.7Z" fill="#4F82A8"/>
<path d="M493.6 367.2H306.4C296.5 367.2 288.5 359.1 288.5 349.3V155.4C288.5 145.5 296.6 137.5 306.4 137.5H493.6C503.5 137.5 511.5 145.6 511.5 155.4V349.3C511.5 359.2 503.5 367.2 493.6 367.2Z" fill="#E3E9FC"/>
<path d="M476.7 271.2H452.6C452.6 271.2 438.6 263.3 398.6 263.3C358.6 263.3 342.8 271.2 342.8 271.2H325V272.9H342.8C342.8 272.9 357.9 281.1 398.6 281.1C439.3 281.1 452.6 272.9 452.6 272.9H476.7V271.2Z" fill="#4F5464"/>
<path d="M472.9 276.9V267.1L487.5 272L472.9 276.9Z" fill="#4F5464"/>
<path d="M317.5 276.7L324.9 272L317.5 266.8H324.4L332.1 271.7L324.4 276.7H317.5Z" fill="#4F5464"/>
<path d="M449.5 199.7H350.5C348.9 199.7 347.6 198.4 347.6 196.8V178.2C347.6 176.6 348.9 175.3 350.5 175.3H449.5C451.1 175.3 452.4 176.6 452.4 178.2V196.8C452.4 198.4 451.1 199.7 449.5 199.7Z" fill="#353A4B"/>
<path d="M408.4 218.2H391.7C389 218.2 386.9 216 386.9 213.4C386.9 210.7 389.1 208.6 391.7 208.6H408.4C411.1 208.6 413.2 210.8 413.2 213.4C413.2 216 411 218.2 408.4 218.2Z" fill="#353A4B"/>
<path d="M433.3 277.2H366.6C365.8 277.2 365.1 276.5 365.1 275.7V268.7C365.1 267.9 365.8 267.2 366.6 267.2H433.3C434.1 267.2 434.8 267.9 434.8 268.7V275.7C434.9 276.6 434.2 277.2 433.3 277.2Z" fill="#353A4B"/>
<path d="M367.8 276.2H366.5C366.4 276.2 366.3 276.1 366.3 276V268.4C366.3 268.3 366.4 268.2 366.5 268.2H367.8C367.9 268.2 368 268.3 368 268.4V276C368 276.1 367.9 276.2 367.8 276.2Z" fill="#E3E9FC"/>
<path d="M372.5 276.2H371.2C371.1 276.2 371 276.1 371 276V268.4C371 268.3 371.1 268.2 371.2 268.2H372.5C372.6 268.2 372.7 268.3 372.7 268.4V276C372.7 276.1 372.6 276.2 372.5 276.2Z" fill="#E3E9FC"/>
<path d="M377.2 276.2H375.9C375.8 276.2 375.7 276.1 375.7 276V268.4C375.7 268.3 375.8 268.2 375.9 268.2H377.2C377.3 268.2 377.4 268.3 377.4 268.4V276C377.4 276.1 377.3 276.2 377.2 276.2Z" fill="#E3E9FC"/>
<path d="M381.9 276.2H380.6C380.5 276.2 380.4 276.1 380.4 276V268.4C380.4 268.3 380.5 268.2 380.6 268.2H381.9C382 268.2 382.1 268.3 382.1 268.4V276C382.1 276.1 382 276.2 381.9 276.2Z" fill="#E3E9FC"/>
<path d="M386.6 276.2H385.3C385.2 276.2 385.1 276.1 385.1 276V268.4C385.1 268.3 385.2 268.2 385.3 268.2H386.6C386.7 268.2 386.8 268.3 386.8 268.4V276C386.8 276.1 386.7 276.2 386.6 276.2Z" fill="#E3E9FC"/>
<path d="M391.3 276.2H390C389.9 276.2 389.8 276.1 389.8 276V268.4C389.8 268.3 389.9 268.2 390 268.2H391.3C391.4 268.2 391.5 268.3 391.5 268.4V276C391.5 276.1 391.4 276.2 391.3 276.2Z" fill="#E3E9FC"/>
<path d="M396 276.2H394.7C394.6 276.2 394.5 276.1 394.5 276V268.4C394.5 268.3 394.6 268.2 394.7 268.2H396C396.1 268.2 396.2 268.3 396.2 268.4V276C396.2 276.1 396.1 276.2 396 276.2Z" fill="#E3E9FC"/>
<path d="M400.7 276.2H399.4C399.3 276.2 399.2 276.1 399.2 276V268.4C399.2 268.3 399.3 268.2 399.4 268.2H400.7C400.8 268.2 400.9 268.3 400.9 268.4V276C400.9 276.1 400.8 276.2 400.7 276.2Z" fill="#E3E9FC"/>
<path d="M405.4 276.2H404.1C404 276.2 403.9 276.1 403.9 276V268.4C403.9 268.3 404 268.2 404.1 268.2H405.4C405.5 268.2 405.6 268.3 405.6 268.4V276C405.6 276.1 405.5 276.2 405.4 276.2Z" fill="#E3E9FC"/>
<path d="M410.1 276.2H408.8C408.7 276.2 408.6 276.1 408.6 276V268.4C408.6 268.3 408.7 268.2 408.8 268.2H410.1C410.2 268.2 410.3 268.3 410.3 268.4V276C410.3 276.1 410.2 276.2 410.1 276.2Z" fill="#E3E9FC"/>
<path d="M414.8 276.2H413.5C413.4 276.2 413.3 276.1 413.3 276V268.4C413.3 268.3 413.4 268.2 413.5 268.2H414.8C414.9 268.2 415 268.3 415 268.4V276C415 276.1 414.9 276.2 414.8 276.2Z" fill="#E3E9FC"/>
<path d="M419.5 276.2H418.2C418.1 276.2 418 276.1 418 276V268.4C418 268.3 418.1 268.2 418.2 268.2H419.5C419.6 268.2 419.7 268.3 419.7 268.4V276C419.7 276.1 419.6 276.2 419.5 276.2Z" fill="#E3E9FC"/>
<path d="M424.2 276.2H422.9C422.8 276.2 422.7 276.1 422.7 276V268.4C422.7 268.3 422.8 268.2 422.9 268.2H424.2C424.3 268.2 424.4 268.3 424.4 268.4V276C424.4 276.1 424.3 276.2 424.2 276.2Z" fill="#E3E9FC"/>
<path d="M428.9 276.2H427.6C427.5 276.2 427.4 276.1 427.4 276V268.4C427.4 268.3 427.5 268.2 427.6 268.2H428.9C429 268.2 429.1 268.3 429.1 268.4V276C429.1 276.1 429 276.2 428.9 276.2Z" fill="#E3E9FC"/>
<path d="M433.6 276.2H432.3C432.2 276.2 432.1 276.1 432.1 276V268.4C432.1 268.3 432.2 268.2 432.3 268.2H433.6C433.7 268.2 433.8 268.3 433.8 268.4V276C433.8 276.1 433.7 276.2 433.6 276.2Z" fill="#E3E9FC"/>
<path d="M439.2 347.5H360.9C359.6 347.5 358.6 346.5 358.6 345.2V330.1C358.6 328.8 359.6 327.8 360.9 327.8H439.2C440.5 327.8 441.5 328.8 441.5 330.1V345.2C441.5 346.5 440.4 347.5 439.2 347.5Z" fill="#55C0B1"/>
<path d="M460.9 163.7H339.2C337.2 163.7 335.5 162 335.5 160C335.5 158 337.2 156.3 339.2 156.3H460.9C462.9 156.3 464.6 158 464.6 160C464.5 162 462.9 163.7 460.9 163.7Z" fill="#C1CBDF"/>
<path d="M339.1 317.5H309.6C307.6 317.5 305.9 315.8 305.9 313.8C305.9 311.8 307.6 310.1 309.6 310.1H339.1C341.1 310.1 342.8 311.8 342.8 313.8C342.8 315.8 341.1 317.5 339.1 317.5Z" fill="#C1CBDF"/>
<path d="M386.6 317.5H357.1C355.1 317.5 353.4 315.8 353.4 313.8C353.4 311.8 355.1 310.1 357.1 310.1H386.6C388.6 310.1 390.3 311.8 390.3 313.8C390.3 315.8 388.7 317.5 386.6 317.5Z" fill="#C1CBDF"/>
<path d="M490.4 317.5H401.5C399.5 317.5 397.8 315.8 397.8 313.8C397.8 311.8 399.5 310.1 401.5 310.1H490.4C492.4 310.1 494.1 311.8 494.1 313.8C494.1 315.8 492.4 317.5 490.4 317.5Z" fill="#C1CBDF"/>
<path d="M363.982 191.469C364.544 191.469 364.958 191.584 365.226 191.814C365.507 192.031 365.647 192.375 365.647 192.847C365.647 193.332 365.507 193.689 365.226 193.919C364.958 194.149 364.544 194.264 363.982 194.264H356.996C356.537 194.264 356.173 194.13 355.905 193.862C355.637 193.581 355.503 193.23 355.503 192.809C355.503 192.26 355.72 191.763 356.154 191.316L360.212 187.086C361.054 186.206 361.475 185.396 361.475 184.656C361.475 184.222 361.347 183.89 361.092 183.66C360.85 183.431 360.499 183.316 360.039 183.316C359.669 183.316 359.325 183.373 359.006 183.488C358.7 183.59 358.342 183.743 357.934 183.947L357.551 184.139C357.5 184.164 357.398 184.222 357.245 184.311C357.105 184.388 356.977 184.445 356.862 184.483C356.747 184.522 356.626 184.541 356.498 184.541C356.179 184.541 355.911 184.4 355.695 184.12C355.478 183.826 355.369 183.482 355.369 183.086C355.369 182.805 355.407 182.576 355.484 182.397C355.573 182.218 355.733 182.053 355.963 181.899C356.562 181.491 357.232 181.172 357.972 180.942C358.725 180.713 359.465 180.598 360.192 180.598C361.137 180.598 361.966 180.757 362.681 181.076C363.395 181.383 363.944 181.829 364.327 182.416C364.722 182.99 364.92 183.654 364.92 184.407C364.92 185.185 364.76 185.9 364.441 186.55C364.135 187.188 363.606 187.903 362.853 188.694L360.135 191.469H363.982Z" fill="#E3E9FC"/>
<path d="M382.883 187.316C383.636 187.533 384.223 187.928 384.644 188.503C385.078 189.077 385.295 189.772 385.295 190.589C385.295 191.367 385.084 192.043 384.663 192.618C384.242 193.192 383.643 193.638 382.864 193.957C382.099 194.264 381.199 194.417 380.166 194.417C379.336 194.417 378.539 194.308 377.773 194.091C377.007 193.862 376.344 193.536 375.783 193.115C375.566 192.949 375.412 192.777 375.323 192.599C375.234 192.407 375.189 192.184 375.189 191.929C375.189 191.533 375.298 191.201 375.515 190.933C375.731 190.653 375.999 190.512 376.318 190.512C376.497 190.512 376.657 190.544 376.797 190.608C376.937 190.659 377.129 190.748 377.371 190.876C377.422 190.901 377.48 190.933 377.543 190.972C377.62 190.997 377.703 191.029 377.792 191.067C378.2 191.271 378.564 191.431 378.883 191.546C379.215 191.648 379.585 191.699 379.993 191.699C380.708 191.699 381.218 191.584 381.524 191.354C381.843 191.125 382.003 190.742 382.003 190.206C382.003 189.708 381.843 189.351 381.524 189.134C381.205 188.917 380.682 188.809 379.955 188.809H378.768C378.386 188.809 378.086 188.675 377.869 188.407C377.652 188.139 377.543 187.82 377.543 187.45C377.543 187.08 377.652 186.761 377.869 186.493C378.086 186.225 378.386 186.091 378.768 186.091H379.61C380.312 186.091 380.823 185.989 381.142 185.785C381.461 185.581 381.62 185.255 381.62 184.809C381.62 184.337 381.48 183.973 381.199 183.718C380.918 183.45 380.529 183.316 380.032 183.316C379.674 183.316 379.336 183.373 379.017 183.488C378.711 183.603 378.366 183.756 377.984 183.947L377.582 184.139C377.339 184.266 377.148 184.362 377.007 184.426C376.867 184.477 376.708 184.502 376.529 184.502C376.21 184.502 375.942 184.368 375.725 184.1C375.508 183.82 375.4 183.482 375.4 183.086C375.4 182.818 375.444 182.595 375.534 182.416C375.623 182.238 375.776 182.065 375.993 181.899C376.542 181.491 377.186 181.172 377.926 180.942C378.679 180.713 379.438 180.598 380.204 180.598C381.148 180.598 381.977 180.751 382.692 181.057C383.419 181.364 383.974 181.797 384.357 182.359C384.753 182.92 384.95 183.571 384.95 184.311C384.95 185.013 384.765 185.632 384.395 186.168C384.038 186.691 383.534 187.074 382.883 187.316Z" fill="#E3E9FC"/>
<path d="M404.041 191.469C404.602 191.469 405.017 191.584 405.285 191.814C405.566 192.031 405.706 192.375 405.706 192.847C405.706 193.332 405.566 193.689 405.285 193.919C405.017 194.149 404.602 194.264 404.041 194.264H397.055C396.596 194.264 396.232 194.13 395.964 193.862C395.696 193.581 395.562 193.23 395.562 192.809C395.562 192.26 395.779 191.763 396.213 191.316L400.27 187.086C401.113 186.206 401.534 185.396 401.534 184.656C401.534 184.222 401.406 183.89 401.151 183.66C400.908 183.431 400.557 183.316 400.098 183.316C399.728 183.316 399.384 183.373 399.065 183.488C398.758 183.59 398.401 183.743 397.993 183.947L397.61 184.139C397.559 184.164 397.457 184.222 397.304 184.311C397.163 184.388 397.036 184.445 396.921 184.483C396.806 184.522 396.685 184.541 396.557 184.541C396.238 184.541 395.97 184.4 395.753 184.12C395.537 183.826 395.428 183.482 395.428 183.086C395.428 182.805 395.466 182.576 395.543 182.397C395.632 182.218 395.792 182.053 396.021 181.899C396.621 181.491 397.291 181.172 398.031 180.942C398.784 180.713 399.524 180.598 400.251 180.598C401.195 180.598 402.025 180.757 402.739 181.076C403.454 181.383 404.003 181.829 404.385 182.416C404.781 182.99 404.979 183.654 404.979 184.407C404.979 185.185 404.819 185.9 404.5 186.55C404.194 187.188 403.664 187.903 402.912 188.694L400.194 191.469H404.041Z" fill="#E3E9FC"/>
<path d="M421.449 185.44C422.278 185.44 423.012 185.625 423.65 185.995C424.301 186.353 424.805 186.863 425.162 187.526C425.532 188.177 425.717 188.93 425.717 189.785C425.717 190.704 425.5 191.514 425.066 192.216C424.633 192.918 424.02 193.46 423.229 193.843C422.438 194.225 421.526 194.417 420.492 194.417C419.701 194.417 418.923 194.302 418.157 194.072C417.404 193.843 416.753 193.524 416.205 193.115C416.001 192.949 415.847 192.777 415.745 192.599C415.656 192.407 415.611 192.184 415.611 191.929C415.611 191.533 415.72 191.201 415.937 190.933C416.154 190.653 416.422 190.512 416.741 190.512C416.932 190.512 417.092 190.538 417.219 190.589C417.347 190.64 417.538 190.736 417.793 190.876L418.176 191.067C418.572 191.259 418.929 191.412 419.248 191.527C419.58 191.642 419.937 191.699 420.32 191.699C421.034 191.699 421.564 191.559 421.908 191.278C422.253 190.984 422.425 190.531 422.425 189.919C422.425 189.345 422.247 188.898 421.889 188.579C421.532 188.26 421.034 188.101 420.396 188.101C420.014 188.101 419.663 188.133 419.344 188.196C419.037 188.26 418.674 188.375 418.253 188.541C417.985 188.681 417.698 188.751 417.391 188.751C417.034 188.751 416.734 188.649 416.492 188.445C416.249 188.228 416.128 187.948 416.128 187.603V182.416C416.128 181.88 416.269 181.472 416.549 181.191C416.83 180.911 417.232 180.77 417.755 180.77H423.688C424.798 180.77 425.354 181.21 425.354 182.091C425.354 182.984 424.798 183.431 423.688 183.431H419.554V185.785C420.09 185.555 420.722 185.44 421.449 185.44Z" fill="#E3E9FC"/>
<path d="M441.479 185.44C442.309 185.44 443.042 185.625 443.68 185.995C444.331 186.353 444.835 186.863 445.192 187.526C445.562 188.177 445.747 188.93 445.747 189.785C445.747 190.704 445.531 191.514 445.097 192.216C444.663 192.918 444.05 193.46 443.259 193.843C442.468 194.225 441.556 194.417 440.522 194.417C439.731 194.417 438.953 194.302 438.187 194.072C437.434 193.843 436.784 193.524 436.235 193.115C436.031 192.949 435.878 192.777 435.776 192.599C435.686 192.407 435.642 192.184 435.642 191.929C435.642 191.533 435.75 191.201 435.967 190.933C436.184 190.653 436.452 190.512 436.771 190.512C436.962 190.512 437.122 190.538 437.249 190.589C437.377 190.64 437.568 190.736 437.824 190.876L438.206 191.067C438.602 191.259 438.959 191.412 439.278 191.527C439.61 191.642 439.967 191.699 440.35 191.699C441.065 191.699 441.594 191.559 441.939 191.278C442.283 190.984 442.455 190.531 442.455 189.919C442.455 189.345 442.277 188.898 441.92 188.579C441.562 188.26 441.065 188.101 440.427 188.101C440.044 188.101 439.693 188.133 439.374 188.196C439.068 188.26 438.704 188.375 438.283 188.541C438.015 188.681 437.728 188.751 437.422 188.751C437.064 188.751 436.765 188.649 436.522 188.445C436.28 188.228 436.158 187.948 436.158 187.603V182.416C436.158 181.88 436.299 181.472 436.58 181.191C436.86 180.911 437.262 180.77 437.785 180.77H443.719C444.829 180.77 445.384 181.21 445.384 182.091C445.384 182.984 444.829 183.431 443.719 183.431H439.584V185.785C440.12 185.555 440.752 185.44 441.479 185.44Z" fill="#E3E9FC"/>
<path d="M368.4 342.1C370.775 342.1 372.7 340.175 372.7 337.8C372.7 335.425 370.775 333.5 368.4 333.5C366.025 333.5 364.1 335.425 364.1 337.8C364.1 340.175 366.025 342.1 368.4 342.1Z" fill="#E3E9FC"/>
<path d="M380.8 342.1C383.175 342.1 385.1 340.175 385.1 337.8C385.1 335.425 383.175 333.5 380.8 333.5C378.425 333.5 376.5 335.425 376.5 337.8C376.5 340.175 378.425 342.1 380.8 342.1Z" fill="#E3E9FC"/>
<path d="M393.3 342.1C395.675 342.1 397.6 340.175 397.6 337.8C397.6 335.425 395.675 333.5 393.3 333.5C390.925 333.5 389 335.425 389 337.8C389 340.175 390.925 342.1 393.3 342.1Z" fill="#E3E9FC"/>
<path d="M405.7 342.1C408.075 342.1 410 340.175 410 337.8C410 335.425 408.075 333.5 405.7 333.5C403.325 333.5 401.4 335.425 401.4 337.8C401.4 340.175 403.325 342.1 405.7 342.1Z" fill="#E3E9FC"/>
<path d="M418.1 342.1C420.475 342.1 422.4 340.175 422.4 337.8C422.4 335.425 420.475 333.5 418.1 333.5C415.725 333.5 413.8 335.425 413.8 337.8C413.8 340.175 415.725 342.1 418.1 342.1Z" fill="#E3E9FC"/>
<path d="M430.5 342.1C432.875 342.1 434.8 340.175 434.8 337.8C434.8 335.425 432.875 333.5 430.5 333.5C428.125 333.5 426.2 335.425 426.2 337.8C426.2 340.175 428.125 342.1 430.5 342.1Z" fill="#E3E9FC"/>
<path opacity="0.2" d="M519.6 273.4V231.2L385.2 127.1H333.8C332.1 127.1 330.5 127.2 328.9 127.5L519.6 273.4Z" fill="white"/>
<path d="M438.2 470.6H361.9C358.6 470.6 355.9 467.9 355.9 464.6C355.9 461.3 358.6 458.6 361.9 458.6H438.2C441.5 458.6 444.2 461.3 444.2 464.6C444.2 467.9 441.5 470.6 438.2 470.6Z" fill="#33607C"/>
</svg>
