<?xml version="1.0" encoding="utf-8"?>
<!-- Generator: Adobe Illustrator 26.2.1, SVG Export Plug-In . SVG Version: 6.00 Build 0)  -->
<svg version="1.1" id="Livello_1" xmlns="http://www.w3.org/2000/svg" xmlns:xlink="http://www.w3.org/1999/xlink" x="0px" y="0px"
	 viewBox="0 0 1080 1080" style="enable-background:new 0 0 1080 1080;" xml:space="preserve">
<style type="text/css">
	.st0{fill:url(#SVGID_1_);}
	.st1{fill:url(#SVGID_00000083087263961888167320000008412876615993821611_);}
	.st2{fill:#FFFFFF;}
	.st3{font-family:'Verdana-Bold';}
	.st4{font-size:469.1919px;}
</style>
<linearGradient id="SVGID_1_" gradientUnits="userSpaceOnUse" x1="0" y1="540" x2="1080" y2="540">
	<stop  offset="0" style="stop-color:#55CBFF"/>
	<stop  offset="1" style="stop-color:#0000FF"/>
</linearGradient>
<circle class="st0" cx="540" cy="540" r="540"/>
<g>
	
		<linearGradient id="SVGID_00000013891291179125926520000011768138840295270841_" gradientUnits="userSpaceOnUse" x1="360.857" y1="151.9641" x2="360.857" y2="928.0471">
		<stop  offset="0" style="stop-color:#FEFF3F"/>
		<stop  offset="0.1149" style="stop-color:#FEF13F"/>
		<stop  offset="0.3308" style="stop-color:#FECD41"/>
		<stop  offset="0.6244" style="stop-color:#FF9342"/>
		<stop  offset="0.9813" style="stop-color:#FF4345"/>
		<stop  offset="1" style="stop-color:#FF3F45"/>
	</linearGradient>
	<path style="fill:url(#SVGID_00000013891291179125926520000011768138840295270841_);" d="M361.4,928
		c-146.2,1-271.2-107.6-289.5-252.8c-8.5-67.4-0.7-133.2,28.4-195.4c11.3-24.3,27.1-45.6,49.1-61.5c18.6-13.4,29-9.1,34,13.1
		c5.3,23.7,13.2,46.3,26.5,66.9c9.7,15.1,22.2,27.2,38.1,35.2c12.1,6.1,14.3,4.3,14.8-9.4c1.6-48.8,4-97.4,15.6-145.1
		c7.7-32,20.1-62,35.9-90.8c27.5-49.9,63.7-92.4,108.6-127.5c7.1-5.5,14.1-11.8,24.2-7.1c9.6,4.4,9.7,13.4,9.9,21.8
		c1.2,58.3,28.8,105.8,61.7,151.3c30.7,42.5,63.5,83.7,87.7,130.7c23.9,46.5,38,95.7,42.1,147.8c0.9,11.7,5.7,23.5,4.4,34.8
		c-4.6,39.8-11.1,79.4-28,116.5C577.3,860.6,475.4,927.2,361.4,928z"/>
	<path class="st2" d="M456,791.7c0,50.8-33,93.5-79.1,102.3c-57.6,11-111.4-35-113.8-97.5c-0.6-16.6,1-33.1,5.6-49.1
		c0.7-2.6,1.2-6,4.4-6.7c3.6-0.7,4.5,2.8,6,5c9.3,13.9,21.2,24,38.2,27.1c16,3,24.7-3.4,25.4-19.6c0.9-18.9,0.9-37.8,3.8-56.6
		c3.7-23.9,13.4-45.2,27.4-64.6c2.6-3.6,6.7-10.6,10.6-0.8c10.8,27.2,29.6,49.4,45,73.7C446.1,731.3,456.2,759.9,456,791.7z"/>
</g>
<text transform="matrix(1 0 0 1 664.4316 730.1367)" class="st2 st3 st4">D</text>
</svg>
