<?xml version="1.0" encoding="utf-8"?>
<!-- Generator: Adobe Illustrator 26.2.1, SVG Export Plug-In . SVG Version: 6.00 Build 0)  -->
<svg version="1.1" id="Livello_1" xmlns="http://www.w3.org/2000/svg" xmlns:xlink="http://www.w3.org/1999/xlink" x="0px" y="0px"
	 viewBox="0 0 1080 1080" style="enable-background:new 0 0 1080 1080;" xml:space="preserve">
<style type="text/css">
	.st0{fill:#47A5DD;}
	.st1{fill:#FFFFFF;}
	.st2{font-family:'Verdana-Bold';}
	.st3{font-size:469.1919px;}
</style>
<circle class="st0" cx="540" cy="540" r="540"/>
<g>
	<path class="st1" d="M361.36,928.04C215.2,929.06,90.14,820.44,71.88,675.22c-8.48-67.43-0.69-133.21,28.37-195.42
		c11.35-24.31,27.08-45.63,49.07-61.53c18.55-13.42,29.03-9.09,34.04,13.08c5.34,23.66,13.25,46.31,26.52,66.9
		c9.72,15.07,22.17,27.16,38.13,35.18c12.09,6.08,14.33,4.3,14.77-9.37c1.58-48.75,4.04-97.36,15.58-145.09
		c7.74-32.02,20.09-62.04,35.91-90.78c27.48-49.93,63.74-92.39,108.64-127.47c7.08-5.53,14.08-11.77,24.23-7.14
		c9.65,4.41,9.69,13.38,9.87,21.83c1.25,58.34,28.82,105.83,61.66,151.29c30.73,42.54,63.51,83.66,87.67,130.68
		c23.91,46.54,37.98,95.65,42.1,147.76c0.92,11.67,5.71,23.53,4.4,34.79c-4.63,39.85-11.1,79.37-28.02,116.48
		C577.31,860.6,475.41,927.24,361.36,928.04z"/>
	<path class="st0" d="M455.95,791.67c0.01,50.85-32.99,93.5-79.15,102.28c-57.64,10.97-111.4-34.98-113.76-97.53
		c-0.63-16.59,1.04-33.06,5.56-49.13c0.74-2.63,1.16-5.98,4.41-6.65c3.58-0.74,4.54,2.77,6,4.97c9.27,13.94,21.22,23.97,38.17,27.11
		c16.02,2.97,24.67-3.4,25.41-19.6c0.86-18.89,0.9-37.78,3.82-56.57c3.72-23.94,13.38-45.21,27.39-64.64
		c2.61-3.62,6.7-10.64,10.6-0.85c10.82,27.15,29.6,49.36,44.98,73.69C446.15,731.31,456.2,759.92,455.95,791.67z"/>
</g>
<text transform="matrix(1 0 0 1 664.4316 730.1367)" class="st1 st2 st3">D</text>
</svg>
