<?xml version="1.0" encoding="utf-8"?>
<!-- Generator: Adobe Illustrator 26.2.1, SVG Export Plug-In . SVG Version: 6.00 Build 0)  -->
<svg version="1.1" id="Livello_1" xmlns="http://www.w3.org/2000/svg" xmlns:xlink="http://www.w3.org/1999/xlink" x="0px" y="0px"
	 viewBox="0 0 100 100" style="enable-background:new 0 0 100 100;" xml:space="preserve">
<style type="text/css">
	.st0{fill:url(#SVGID_1_);}
	.st1{fill:url(#SVGID_00000116938877043141551480000016091004206939895721_);}
</style>
<g>
	<linearGradient id="SVGID_1_" gradientUnits="userSpaceOnUse" x1="6.8749" y1="58.0783" x2="93.1251" y2="58.0783">
		<stop  offset="0" style="stop-color:#FFFFFF"/>
		<stop  offset="0.2423" style="stop-color:#DEDDDD"/>
		<stop  offset="0.3575" style="stop-color:#CDCCCC"/>
		<stop  offset="1" style="stop-color:#FFFFFF"/>
	</linearGradient>
	<path class="st0" d="M36.1,16.2c0,4.6,0,9.2,0,13.8c0,0.3-0.4,0.7-0.7,0.9c-5,2.8-8.8,6.8-11.6,11.8c-9.4,17,0.5,39.1,19.5,43.3
		c16.4,3.6,32.1-6.3,35.8-22.6c2.9-12.4-2.9-25.7-13.9-32c-1-0.6-1.3-1.1-1.3-2.2c0.1-4.3,0-8.6,0-12.9c13.7,4,29.6,19.4,29.2,41.6
		C92.7,80.4,75,98.1,53.5,99.9C30.4,101.7,10.2,85,7.2,62.4C4.3,39.8,19.3,21.5,36.1,16.2z"/>
	
		<linearGradient id="SVGID_00000049944650232795328520000001328739413054767035_" gradientUnits="userSpaceOnUse" x1="43.0363" y1="29.7854" x2="56.9934" y2="29.7854">
		<stop  offset="0" style="stop-color:#FFFFFF"/>
		<stop  offset="0.2423" style="stop-color:#DEDDDD"/>
		<stop  offset="0.3575" style="stop-color:#CDCCCC"/>
		<stop  offset="1" style="stop-color:#FFFFFF"/>
	</linearGradient>
	<path style="fill:url(#SVGID_00000049944650232795328520000001328739413054767035_);" d="M43,29.7c0-7.5,0-15,0-22.5
		c0-3.8,2.5-6.6,6.2-7.2c3.6-0.5,7.2,2.3,7.7,5.9C57,6.4,57,6.8,57,7.2c0,15,0,30.1,0,45.1c0,3.6-2.1,6.3-5.4,7.1
		c-4,1-8.1-1.9-8.5-6.1C43,52.7,43,52.1,43,51.5C43,44.2,43,37,43,29.7z"/>
</g>
</svg>
