<?xml version="1.0" encoding="utf-8"?>
<!-- Generator: Adobe Illustrator 26.2.1, SVG Export Plug-In . SVG Version: 6.00 Build 0)  -->
<svg version="1.1" id="Livello_1" xmlns="http://www.w3.org/2000/svg" xmlns:xlink="http://www.w3.org/1999/xlink" x="0px" y="0px"
	 viewBox="0 0 1080 1080" style="enable-background:new 0 0 1080 1080;" xml:space="preserve">
<style type="text/css">
	.st0{display:none;fill:#47A5DD;}
	.st1{fill:url(#SVGID_1_);}
	.st2{fill:#FFFFFF;}
	.st3{fill:url(#SVGID_00000094604542716468330650000013154403330328890253_);}
	.st4{fill:#47A5DD;}
	.st5{fill:#FFFFFE;}
	.st6{font-family:'Verdana-Bold';}
	.st7{font-size:469.1919px;}
	.st8{display:none;}
	.st9{display:inline;fill:#FFFFFF;}
	.st10{display:inline;fill:#47A5DD;}
</style>
<circle class="st0" cx="540" cy="540" r="540"/>
<linearGradient id="SVGID_1_" gradientUnits="userSpaceOnUse" x1="1.293092e-03" y1="540.0006" x2="1080.0027" y2="540.0006">
	<stop  offset="0" style="stop-color:#FEFF3F"/>
	<stop  offset="0.1149" style="stop-color:#FEF13F"/>
	<stop  offset="0.3308" style="stop-color:#FECD41"/>
	<stop  offset="0.6244" style="stop-color:#FF9342"/>
	<stop  offset="0.9813" style="stop-color:#FF4345"/>
	<stop  offset="1" style="stop-color:#FF3F45"/>
</linearGradient>
<path class="st1" d="M539.7,1079.2C245.9,1083.4-4.4,835.6,0.1,530.2C4.3,240.4,246.1,0,541.4,0.7c309.3,0.8,544.2,259,538.5,554.1
	C1074.3,840.7,833.4,1079.2,539.7,1079.2z"/>
<g>
	<path class="st2" d="M215.8,779.5c0-12.8-0.1-25.7,0-38.5c0.4-29.8-8.9-52.5-34.7-72.2c-97.8-74.7-134-204.7-93.2-322.9
		c39.4-114.2,148.9-191.6,271-191.6c118.1,0,224.6,67.4,267.1,174.5c46.3,116.6,26.2,223-58.7,316.3c-2.3,2.5-4.5,5.5-7.4,7
		c-50.6,26.9-54.4,72.5-53,123c2.5,88.3,5.4,81-73.5,119.8c-81.1,40-63,42.4-147.5-1.3c-0.8-0.4-1.5-0.8-2.3-1.2
		C207.3,854.7,216.1,861.9,215.8,779.5z"/>
	
		<linearGradient id="SVGID_00000147222549215179593200000012220447094979037838_" gradientUnits="userSpaceOnUse" x1="599.4039" y1="443.0979" x2="120.7335" y2="443.0979">
		<stop  offset="0" style="stop-color:#55CBFF"/>
		<stop  offset="1" style="stop-color:#0000FF"/>
	</linearGradient>
	<path style="fill:url(#SVGID_00000147222549215179593200000012220447094979037838_);" d="M361.4,682.8c-28.3,0-56.5,0.1-84.8-0.1
		c-6.7,0-16.5,3-19.3-3.2c-16.5-36.3-54.1-51.4-78.2-80.1c-67.5-80.3-77.6-189.8-24.1-279.8c51-85.8,155.5-132.6,251-112.4
		C511.4,229.6,587.8,311.9,598,417.6c8.5,88.3-22.2,160.8-93.7,215.1c-8.7,6.6-18.6,14.4-22.8,23.9c-10.4,23.5-27.2,28.7-50.8,26.6
		C407.8,681.2,384.6,682.8,361.4,682.8z"/>
	<path class="st4" d="M360.6,779.3c-25.7,0-51.4-1-77,0.3c-18.6,0.9-21-8.4-20.3-23.5c0.5-13.4-1.3-25.2,19-24.8
		c53,1,106.1,1,159.2,0c22.3-0.4,15.8,14.5,16.8,26c1.1,13.1,0.4,23.3-18,22.3C413.7,778.3,387.1,779.3,360.6,779.3z"/>
	<path class="st4" d="M452.1,829.5c-29.4,15-54.5,27.3-79.2,40.6c-9.6,5.2-17.2,3.7-26.2-1.1c-24.1-12.8-48.6-24.7-77.9-39.5
		C331.6,829.5,389.3,829.5,452.1,829.5z"/>
	<path class="st5" d="M397.9,250.9c88.1,8.1,149.9,70.7,155.7,157.7c1.2,17.6-1.9,34.8-22.5,36.7c-20.5,1.9-25.6-13-27.4-31.7
		c-5.6-60.9-49.9-105.7-112.6-114c-18.6-2.5-32.1-6.9-30.4-28.5C362,254.7,373.9,248.7,397.9,250.9z"/>
</g>
<text transform="matrix(1 0 0 1 664.4316 730.1367)" class="st2 st6 st7">A</text>
<g class="st8">
	<path class="st9" d="M361.4,928c-146.2,1-271.2-107.6-289.5-252.8c-8.5-67.4-0.7-133.2,28.4-195.4c11.3-24.3,27.1-45.6,49.1-61.5
		c18.6-13.4,29-9.1,34,13.1c5.3,23.7,13.2,46.3,26.5,66.9c9.7,15.1,22.2,27.2,38.1,35.2c12.1,6.1,14.3,4.3,14.8-9.4
		c1.6-48.8,4-97.4,15.6-145.1c7.7-32,20.1-62,35.9-90.8c27.5-49.9,63.7-92.4,108.6-127.5c7.1-5.5,14.1-11.8,24.2-7.1
		c9.6,4.4,9.7,13.4,9.9,21.8c1.2,58.3,28.8,105.8,61.7,151.3c30.7,42.5,63.5,83.7,87.7,130.7c23.9,46.5,38,95.7,42.1,147.8
		c0.9,11.7,5.7,23.5,4.4,34.8c-4.6,39.8-11.1,79.4-28,116.5C577.3,860.6,475.4,927.2,361.4,928z"/>
	<path class="st10" d="M456,791.7c0,50.8-33,93.5-79.1,102.3c-57.6,11-111.4-35-113.8-97.5c-0.6-16.6,1-33.1,5.6-49.1
		c0.7-2.6,1.2-6,4.4-6.7c3.6-0.7,4.5,2.8,6,5c9.3,13.9,21.2,24,38.2,27.1c16,3,24.7-3.4,25.4-19.6c0.9-18.9,0.9-37.8,3.8-56.6
		c3.7-23.9,13.4-45.2,27.4-64.6c2.6-3.6,6.7-10.6,10.6-0.8c10.8,27.2,29.6,49.4,45,73.7C446.1,731.3,456.2,759.9,456,791.7z"/>
</g>
</svg>
