<?xml version="1.0" encoding="utf-8"?>
<!-- Generator: Adobe Illustrator 26.2.1, SVG Export Plug-In . SVG Version: 6.00 Build 0)  -->
<svg version="1.1" id="Livello_1" xmlns="http://www.w3.org/2000/svg" xmlns:xlink="http://www.w3.org/1999/xlink" x="0px" y="0px"
	 viewBox="0 0 1080 1080" style="enable-background:new 0 0 1080 1080;" xml:space="preserve">
<style type="text/css">
	.st0{display:none;fill:#47A5DD;}
	.st1{fill:#F3AD21;}
	.st2{fill:#FFFFFF;}
	.st3{fill:#F3AF27;}
	.st4{fill:#F3AE23;}
	.st5{fill:#FFFFFE;}
	.st6{font-family:'Verdana-Bold';}
	.st7{font-size:469.1919px;}
	.st8{display:none;}
	.st9{display:inline;fill:#FFFFFF;}
	.st10{display:inline;fill:#47A5DD;}
</style>
<circle class="st0" cx="540" cy="540" r="540"/>
<path class="st1" d="M539.66,1079.24C245.88,1083.45-4.4,835.64,0.06,530.16C4.29,240.41,246.08-0.01,541.38,0.71
	C850.7,1.47,1085.63,259.75,1079.9,554.8C1074.34,840.74,833.44,1079.24,539.66,1079.24z"/>
<g>
	<path class="st2" d="M215.76,779.55c0-12.84-0.14-25.69,0.03-38.53c0.38-29.85-8.93-52.55-34.69-72.23
		c-97.76-74.69-133.98-204.73-93.17-322.9C127.37,231.7,236.81,154.3,358.89,154.28c118.15-0.03,224.57,67.42,267.12,174.54
		c46.31,116.58,26.18,222.97-58.65,316.29c-2.3,2.53-4.53,5.49-7.44,7.03c-50.59,26.94-54.44,72.54-53.02,123.02
		c2.48,88.32,5.43,80.97-73.51,119.84c-81.15,39.96-63.05,42.38-147.53-1.31c-0.76-0.39-1.52-0.79-2.29-1.17
		C207.31,854.65,216.08,861.9,215.76,779.55z"/>
	<path class="st1" d="M361.44,682.79c-28.26,0-56.53,0.12-84.79-0.09c-6.66-0.05-16.51,3.04-19.34-3.2
		c-16.46-36.35-54.12-51.4-78.25-80.11c-67.48-80.3-77.6-189.76-24.12-279.75c50.98-85.8,155.5-132.6,250.95-112.39
		c105.47,22.34,181.89,104.68,192.12,210.4c8.55,88.32-22.18,160.8-93.68,215.09c-8.72,6.62-18.56,14.37-22.75,23.86
		c-10.37,23.47-27.17,28.66-50.81,26.61C407.83,681.24,384.57,682.79,361.44,682.79z"/>
	<path class="st3" d="M360.56,779.35c-25.67,0-51.4-0.96-77.01,0.32c-18.65,0.93-20.96-8.4-20.34-23.49
		c0.55-13.41-1.27-25.23,18.96-24.85c53.04,1,106.13,1,159.17,0.02c22.32-0.41,15.8,14.46,16.79,26.03
		c1.13,13.14,0.42,23.27-17.99,22.31C413.67,778.33,387.09,779.35,360.56,779.35z"/>
	<path class="st4" d="M452.13,829.5c-29.37,14.97-54.55,27.28-79.18,40.62c-9.63,5.22-17.21,3.7-26.23-1.1
		c-24.08-12.8-48.61-24.74-77.92-39.52C331.6,829.5,389.32,829.5,452.13,829.5z"/>
	<path class="st5" d="M397.9,250.87c88.07,8.12,149.89,70.74,155.68,157.7c1.17,17.64-1.88,34.82-22.48,36.7
		c-20.53,1.88-25.62-12.97-27.35-31.73c-5.61-60.87-49.87-105.7-112.64-113.98c-18.63-2.46-32.14-6.87-30.4-28.48
		C362.02,254.67,373.9,248.66,397.9,250.87z"/>
</g>
<text transform="matrix(1 0 0 1 664.4316 730.1367)" class="st2 st6 st7">A</text>
<g class="st8">
	<path class="st9" d="M361.36,928.04C215.2,929.06,90.14,820.44,71.88,675.22c-8.48-67.43-0.69-133.21,28.37-195.42
		c11.35-24.31,27.08-45.63,49.07-61.53c18.55-13.42,29.03-9.09,34.04,13.08c5.34,23.66,13.25,46.31,26.52,66.9
		c9.72,15.07,22.17,27.16,38.13,35.18c12.09,6.08,14.33,4.3,14.77-9.37c1.58-48.75,4.04-97.36,15.58-145.09
		c7.74-32.02,20.09-62.04,35.91-90.78c27.48-49.93,63.74-92.39,108.64-127.47c7.08-5.53,14.08-11.77,24.23-7.14
		c9.65,4.41,9.69,13.38,9.87,21.83c1.25,58.34,28.82,105.83,61.66,151.29c30.73,42.54,63.51,83.66,87.67,130.68
		c23.91,46.54,37.98,95.65,42.1,147.76c0.92,11.67,5.71,23.53,4.4,34.79c-4.63,39.85-11.1,79.37-28.02,116.48
		C577.31,860.6,475.41,927.24,361.36,928.04z"/>
	<path class="st10" d="M455.95,791.67c0.01,50.85-32.99,93.5-79.15,102.28c-57.64,10.97-111.4-34.98-113.76-97.53
		c-0.63-16.59,1.04-33.06,5.56-49.13c0.74-2.63,1.16-5.98,4.41-6.65c3.58-0.74,4.54,2.77,6,4.97c9.27,13.94,21.22,23.97,38.17,27.11
		c16.02,2.97,24.67-3.4,25.41-19.6c0.86-18.89,0.9-37.78,3.82-56.57c3.72-23.94,13.38-45.21,27.39-64.64
		c2.61-3.62,6.7-10.64,10.6-0.85c10.82,27.15,29.6,49.36,44.98,73.69C446.15,731.31,456.2,759.92,455.95,791.67z"/>
</g>
</svg>
