<?xml version="1.0" encoding="utf-8"?>
<!-- Generator: Adobe Illustrator 26.2.1, SVG Export Plug-In . SVG Version: 6.00 Build 0)  -->
<svg version="1.1" id="Livello_1" xmlns="http://www.w3.org/2000/svg" xmlns:xlink="http://www.w3.org/1999/xlink" x="0px" y="0px"
	 viewBox="0 0 1080 1080" style="enable-background:new 0 0 1080 1080;" xml:space="preserve">
<style type="text/css">
	.st0{display:none;fill:#47A5DD;}
	.st1{fill:url(#SVGID_1_);}
	.st2{fill:#DBEFF8;}
	.st3{fill:url(#SVGID_00000042017888554389249880000002355672427220343483_);}
	.st4{fill:#F3AF27;}
	.st5{fill:#F3AE23;}
	.st6{opacity:0.7;fill:#47A5DD;enable-background:new    ;}
	.st7{fill:url(#SVGID_00000067223713859660692370000005585351959446420925_);}
	.st8{fill:#FFFFFF;}
</style>
<circle class="st0" cx="540" cy="540" r="540"/>
<linearGradient id="SVGID_1_" gradientUnits="userSpaceOnUse" x1="1.0402" y1="539.9755" x2="1081.0016" y2="539.9755">
	<stop  offset="0" style="stop-color:#55CBFF"/>
	<stop  offset="1" style="stop-color:#0000FF"/>
</linearGradient>
<path class="st1" d="M540.7,1079.2c-293.8,4.2-544.1-243.6-539.6-549C5.3,240.4,247.1,0,542.4,0.7c309.3,0.8,544.2,259,538.5,554.1
	C1075.3,840.7,834.4,1079.2,540.7,1079.2z"/>
<g>
	<path class="st2" d="M250.4,566c0-9.4-0.1-18.9,0-28.3c0.2-22-6.5-38.7-25.5-53.1c-71.9-54.9-98.4-150.5-68.5-237.4
		c29-83.9,109.4-140.8,199.2-140.8c86.9,0,165.1,49.6,196.3,128.3c34,85.7,19.2,163.9-43.2,232.5c-1.7,1.8-3.3,4-5.5,5.2
		c-37.2,19.8-40.1,53.3-38.9,90.4c1.8,64.9,4,59.5-54,88.1c-59.6,29.4-46.4,31.1-108.4-0.9c-0.6-0.2-1.1-0.6-1.7-0.9
		C244.2,621.2,250.6,626.5,250.4,566z"/>
	
		<linearGradient id="SVGID_00000152253417801278657490000017975922291878652599_" gradientUnits="userSpaceOnUse" x1="356.5451" y1="495.4729" x2="356.5451" y2="141.9034">
		<stop  offset="0" style="stop-color:#FEFF3F"/>
		<stop  offset="0.1149" style="stop-color:#FEF13F"/>
		<stop  offset="0.3308" style="stop-color:#FECD41"/>
		<stop  offset="0.6244" style="stop-color:#FF9342"/>
		<stop  offset="0.9813" style="stop-color:#FF4345"/>
		<stop  offset="1" style="stop-color:#FF3F45"/>
	</linearGradient>
	<path style="fill:url(#SVGID_00000152253417801278657490000017975922291878652599_);" d="M357.4,494.8c-20.7,0-41.6,0.1-62.3-0.1
		c-4.9,0-12.1,2.3-14.2-2.3c-12.1-26.7-39.8-37.8-57.5-58.8c-49.6-59.1-57-139.5-17.7-205.7c37.4-63.1,114.2-97.4,184.4-82.5
		c77.5,16.5,133.7,76.9,141.3,154.7c6.3,64.9-16.3,118.2-68.9,158.1c-6.4,4.8-13.6,10.5-16.7,17.5c-7.7,17.3-20,21.1-37.3,19.6
		C391.5,493.7,374.5,494.8,357.4,494.8z"/>
	<path class="st4" d="M356.9,565.8c-18.9,0-37.8-0.7-56.5,0.2c-13.7,0.7-15.5-6.2-15-17.3c0.5-9.8-0.9-18.5,14-18.3
		c39,0.7,78,0.8,117,0c16.4-0.3,11.6,10.6,12.4,19.1c0.8,9.6,0.3,17.1-13.2,16.4C395.9,565.1,376.3,565.8,356.9,565.8z"/>
	<path class="st5" d="M424.2,602.7c-21.6,11-40.1,20-58.3,29.9c-7.1,3.8-12.6,2.7-19.3-0.8c-17.7-9.4-35.7-18.2-57.2-29.1
		C335.6,602.7,378,602.7,424.2,602.7z"/>
	<path class="st6" d="M384.3,177.4c64.8,6,110.1,52,114.5,116c0.9,12.9-1.4,25.6-16.5,27c-15.1,1.4-18.9-9.5-20.1-23.4
		c-4.1-44.8-36.6-77.7-82.8-83.8c-13.7-1.8-23.6-5-22.3-20.9C357.9,180.2,366.6,175.7,384.3,177.4z"/>
</g>
<g>
	
		<linearGradient id="SVGID_00000140016733930005651990000009520050438533280957_" gradientUnits="userSpaceOnUse" x1="723" y1="396.4315" x2="723" y2="963.5684">
		<stop  offset="0" style="stop-color:#FEFF3F"/>
		<stop  offset="0.1149" style="stop-color:#FEF13F"/>
		<stop  offset="0.3308" style="stop-color:#FECD41"/>
		<stop  offset="0.6244" style="stop-color:#FF9342"/>
		<stop  offset="0.9813" style="stop-color:#FF4345"/>
		<stop  offset="1" style="stop-color:#FF3F45"/>
	</linearGradient>
	<path style="fill:url(#SVGID_00000140016733930005651990000009520050438533280957_);" d="M723.3,963.6
		c-106.8,0.8-198.2-78.6-211.5-184.8c-6.1-49.3-0.5-97.3,20.7-142.8c8.3-17.7,19.8-33.3,35.8-44.9c13.5-9.8,21.2-6.6,24.9,9.6
		c3.9,17.3,9.7,33.8,19.3,48.9c7.1,11,16.2,19.8,27.9,25.7c8.9,4.4,10.5,3.2,10.8-6.8c1.1-35.6,3-71.1,11.4-106
		c5.7-23.4,14.7-45.3,26.3-66.3c20.1-36.5,46.5-67.5,79.4-93.2c5.1-4,10.2-8.6,17.7-5.2c7.1,3.2,7.1,9.8,7.2,15.9
		c0.9,42.7,21,77.4,45.1,110.6c22.4,31.1,46.4,61.1,64.1,95.5c17.4,34,27.8,69.9,30.7,108c0.7,8.5,4.2,17.2,3.2,25.4
		c-3.4,29.1-8.1,58-20.5,85.1C881,914.3,806.6,963,723.3,963.6z"/>
	<path class="st8" d="M792.4,863.9c0,37.2-24.1,68.3-57.8,74.8c-42.1,8-81.4-25.6-83.1-71.2c-0.5-12.2,0.8-24.1,4.1-35.8
		c0.6-1.9,0.8-4.3,3.2-4.9c2.6-0.6,3.3,2,4.3,3.6c6.8,10.2,15.5,17.5,27.9,19.8c11.7,2.2,18-2.5,18.5-14.3
		c0.6-13.8,0.7-27.6,2.8-41.3c2.7-17.5,9.8-33,20-47.2c1.9-2.6,4.9-7.7,7.7-0.6c8,19.8,21.6,36.1,32.9,53.8
		C785.2,819.9,792.6,840.7,792.4,863.9z"/>
</g>
</svg>
