<?xml version="1.0" encoding="utf-8"?>
<!-- Generator: Adobe Illustrator 26.2.1, SVG Export Plug-In . SVG Version: 6.00 Build 0)  -->
<svg version="1.1" id="Livello_1" xmlns="http://www.w3.org/2000/svg" xmlns:xlink="http://www.w3.org/1999/xlink" x="0px" y="0px"
	 viewBox="0 0 1080 1080" style="enable-background:new 0 0 1080 1080;" xml:space="preserve">
<style type="text/css">
	.st0{display:none;fill:#47A5DD;}
	.st1{fill:url(#SVGID_1_);}
	.st2{fill:#DBEFF8;}
	.st3{fill:url(#SVGID_00000098926238447937989160000000817546856861455488_);}
	.st4{fill:#47A5DD;}
	.st5{fill:#FFFFFF;}
	.st6{fill:url(#SVGID_00000141422719933396032750000005809039477608857496_);}
	.st7{fill:url(#SVGID_00000056389766995994672000000005521542164970114964_);}
</style>
<circle class="st0" cx="540" cy="540" r="540"/>
<linearGradient id="SVGID_1_" gradientUnits="userSpaceOnUse" x1="1.0402" y1="539.9755" x2="1081.0016" y2="539.9755">
	<stop  offset="0" style="stop-color:#FEFF3F"/>
	<stop  offset="0.1149" style="stop-color:#FEF13F"/>
	<stop  offset="0.3308" style="stop-color:#FECD41"/>
	<stop  offset="0.6244" style="stop-color:#FF9342"/>
	<stop  offset="0.9813" style="stop-color:#FF4345"/>
	<stop  offset="1" style="stop-color:#FF3F45"/>
</linearGradient>
<path class="st1" d="M540.7,1079.2c-293.8,4.2-544.1-243.6-539.6-549C5.3,240.4,247.1,0,542.4,0.7c309.3,0.8,544.2,259,538.5,554.1
	C1075.3,840.7,834.4,1079.2,540.7,1079.2z"/>
<g>
	<path class="st2" d="M249.9,556.9c0-9.4-0.1-19,0-28.4c0.2-22.1-6.6-38.9-25.6-53.4c-72.2-55.2-98.9-151.2-68.8-238.5
		c29.1-84.3,109.9-141.5,200.1-141.5c87.3,0,165.8,49.8,197.2,128.9c34.2,86.1,19.3,164.7-43.4,233.6c-1.7,1.8-3.3,4-5.5,5.2
		c-37.4,19.9-40.3,53.6-39.1,90.9c1.8,65.2,4,59.8-54.3,88.6c-59.9,29.6-46.6,31.3-108.9-0.9c-0.6-0.2-1.2-0.6-1.7-0.9
		C243.7,612.3,250.1,617.6,249.9,556.9z"/>
	
		<linearGradient id="SVGID_00000038396805498698291310000000055513390129562253_" gradientUnits="userSpaceOnUse" x1="533.2744" y1="308.3528" x2="179.8116" y2="308.3528">
		<stop  offset="0" style="stop-color:#55CBFF"/>
		<stop  offset="1" style="stop-color:#0000FF"/>
	</linearGradient>
	<path style="fill:url(#SVGID_00000038396805498698291310000000055513390129562253_);" d="M357.4,485.3c-20.8,0-41.7,0.1-62.6-0.1
		c-4.9,0-12.2,2.3-14.3-2.3c-12.2-26.8-40-38-57.7-59.1c-49.8-59.3-57.3-140.2-17.8-206.7c37.6-63.4,114.8-97.9,185.3-82.9
		c77.9,16.6,134.3,77.3,141.9,155.4c6.3,65.2-16.3,118.8-69.2,158.8c-6.4,4.8-13.7,10.6-16.8,17.6c-7.7,17.4-20.1,21.2-37.5,19.7
		C391.7,484.2,374.6,485.3,357.4,485.3z"/>
	<path class="st4" d="M356.9,556.6c-19,0-38-0.7-56.8,0.2c-13.8,0.7-15.5-6.2-15.1-17.4c0.5-9.9-0.9-18.6,14-18.4
		c39.2,0.7,78.3,0.8,117.5,0c16.4-0.3,11.6,10.7,12.4,19.2c0.8,9.7,0.3,17.1-13.2,16.4C396.1,555.9,376.4,556.6,356.9,556.6z"/>
	<path class="st4" d="M424.5,593.7c-21.7,11-40.3,20.1-58.5,30c-7.1,3.8-12.7,2.8-19.4-0.8c-17.8-9.4-35.9-18.3-57.5-29.2
		C335.5,593.7,378.1,593.7,424.5,593.7z"/>
	<path class="st5" d="M384.5,166.4c65.1,6,110.6,52.2,115,116.5c0.9,13-1.4,25.8-16.6,27.1c-15.2,1.4-19-9.5-20.2-23.5
		c-4.1-45-36.8-78.1-83.2-84.2c-13.8-1.8-23.7-5.1-22.4-21C357.9,169.2,366.6,164.7,384.5,166.4z"/>
</g>
<g>
	
		<linearGradient id="SVGID_00000037661601183909756960000008489301863434232471_" gradientUnits="userSpaceOnUse" x1="508.9803" y1="700" x2="937.0197" y2="700">
		<stop  offset="0" style="stop-color:#55CBFF"/>
		<stop  offset="1" style="stop-color:#0000FF"/>
	</linearGradient>
	<path style="fill:url(#SVGID_00000037661601183909756960000008489301863434232471_);" d="M723.3,984.2
		c-107.1,0.8-198.7-78.8-212-185.2c-6.2-49.4-0.5-97.5,20.8-143.1c8.3-17.8,19.8-33.4,35.9-45c13.6-9.8,21.2-6.6,25,9.6
		c3.9,17.3,9.7,33.9,19.4,49c7.1,11.1,16.2,19.8,27.9,25.8c8.9,4.4,10.5,3.2,10.8-6.8c1.1-35.7,3-71.3,11.4-106.3
		c5.7-23.5,14.7-45.4,26.3-66.5c20.2-36.6,46.6-67.6,79.6-93.4c5.1-4,10.3-8.7,17.8-5.2c7.1,3.2,7.1,9.8,7.2,16
		c0.9,42.8,21.1,77.6,45.2,110.9c22.5,31.1,46.5,61.2,64.2,95.7c17.4,34.1,27.8,70,30.8,108.2c0.7,8.6,4.2,17.2,3.2,25.4
		c-3.4,29.2-8.1,58.2-20.5,85.3C881.4,934.8,806.8,983.7,723.3,984.2z"/>
	
		<radialGradient id="SVGID_00000169548860014477710730000003253638487708310694_" cx="721.9237" cy="861.806" r="85.7815" gradientUnits="userSpaceOnUse">
		<stop  offset="0" style="stop-color:#FFFFFF"/>
		<stop  offset="7.503891e-02" style="stop-color:#FEFFEE"/>
		<stop  offset="0.7189" style="stop-color:#F5FF62"/>
		<stop  offset="1" style="stop-color:#F2FF2A"/>
	</radialGradient>
	<path style="fill:url(#SVGID_00000169548860014477710730000003253638487708310694_);" d="M792.6,884.3c0,37.3-24.2,68.4-57.9,74.9
		c-42.2,8-81.5-25.7-83.3-71.4c-0.5-12.2,0.8-24.2,4.1-35.9c0.6-1.9,0.8-4.3,3.2-4.9c2.6-0.6,3.3,2.1,4.3,3.6
		c6.8,10.3,15.5,17.6,27.9,19.8c11.7,2.2,18-2.5,18.6-14.4c0.6-13.8,0.7-27.7,2.9-41.4c2.7-17.6,9.8-33.1,20.1-47.3
		c1.9-2.6,4.9-7.8,7.8-0.6c8,19.8,21.7,36.2,33,53.9C785.4,840.2,792.8,861.1,792.6,884.3z"/>
</g>
</svg>
