<?xml version="1.0" encoding="utf-8"?>
<!-- Generator: Adobe Illustrator 26.2.1, SVG Export Plug-In . SVG Version: 6.00 Build 0)  -->
<svg version="1.1" id="Livello_1" xmlns="http://www.w3.org/2000/svg" xmlns:xlink="http://www.w3.org/1999/xlink" x="0px" y="0px"
	 viewBox="0 0 1080 1080" style="enable-background:new 0 0 1080 1080;" xml:space="preserve">
<style type="text/css">
	.st0{display:none;fill:#47A5DD;}
	.st1{fill:#006600;}
	.st2{fill:#FFFFFF;}
	.st3{font-family:'Verdana-Bold';}
	.st4{font-size:469.1919px;}
	.st5{fill:#DBEFF8;}
	.st6{fill:#F3AD21;}
	.st7{fill:#F3AF27;}
	.st8{fill:#F3AE23;}
	.st9{opacity:0.7;fill:#47A5DD;enable-background:new    ;}
	.st10{fill:#47A5DD;}
</style>
<circle class="st0" cx="540" cy="540" r="540"/>
<path class="st1" d="M540.7,1079.2C246.9,1083.4-3.4,835.6,1.1,530.2C5.3,240.4,247.1,0,542.4,0.7c309.3,0.8,544.2,259,538.5,554.1
	C1075.3,840.7,834.4,1079.2,540.7,1079.2z"/>
<text transform="matrix(1 0 0 1 379.667 428.4446)" class="st2 st3 st4">D</text>
<g>
	<g>
		<path class="st5" d="M202.7,831.5c0-8.2-0.1-16.5,0-24.7c0.2-19.2-5.7-33.8-22.3-46.4c-62.8-48-86-131.5-59.8-207.4
			c25.3-73.3,95.6-123,174-123c75.9,0,144.2,43.3,171.5,112.1c29.7,74.9,16.8,143.2-37.7,203.1c-1.5,1.6-2.9,3.5-4.8,4.5
			c-32.5,17.3-35,46.6-34,79c1.6,56.7,3.5,52-47.2,77c-52.1,25.7-40.5,27.2-94.7-0.8c-0.5-0.2-1-0.5-1.5-0.8
			C197.3,879.7,202.9,884.3,202.7,831.5z"/>
		<path class="st6" d="M296.2,769.3c-18.1,0-36.3,0.1-54.4-0.1c-4.3,0-10.6,2-12.4-2c-10.6-23.3-34.8-33-50.2-51.4
			c-43.3-51.6-49.8-121.9-15.5-179.7C196.4,481,263.5,451,324.8,464c67.7,14.4,116.8,67.2,123.4,135.1
			c5.5,56.7-14.2,103.3-60.2,138.1c-5.6,4.2-11.9,9.2-14.6,15.3c-6.7,15.1-17.5,18.4-32.6,17.1C326,768.3,311.1,769.3,296.2,769.3z"
			/>
		<path class="st7" d="M295.7,831.3c-16.5,0-33-0.6-49.4,0.2c-12,0.6-13.5-5.4-13.1-15.1c0.4-8.6-0.8-16.2,12.2-16
			c34.1,0.6,68.1,0.7,102.2,0c14.3-0.3,10.1,9.3,10.8,16.7c0.7,8.4,0.3,14.9-11.5,14.3C329.8,830.7,312.7,831.3,295.7,831.3z"/>
		<path class="st8" d="M354.5,863.5c-18.9,9.6-35,17.5-50.9,26.1c-6.2,3.3-11,2.4-16.9-0.7c-15.5-8.2-31.2-15.9-50-25.4
			C277.1,863.5,314.2,863.5,354.5,863.5z"/>
		<path class="st9" d="M319.7,492c56.6,5.2,96.2,45.4,100,101.3c0.8,11.3-1.2,22.4-14.4,23.6c-13.2,1.2-16.5-8.3-17.6-20.4
			c-3.6-39.1-32-67.9-72.3-73.2c-12-1.6-20.6-4.4-19.5-18.3C296.6,494.4,304.2,490.5,319.7,492z"/>
	</g>
	<g>
		<path class="st10" d="M784.7,926.8c-93.9,0.7-174.2-69.1-185.9-162.4c-5.4-43.3-0.4-85.5,18.2-125.5c7.3-15.6,17.4-29.3,31.5-39.5
			c11.9-8.6,18.6-5.8,21.9,8.4c3.4,15.2,8.5,29.7,17,43c6.2,9.7,14.2,17.4,24.5,22.6c7.8,3.9,9.2,2.8,9.5-6c1-31.3,2.6-62.5,10-93.2
			c5-20.6,12.9-39.8,23.1-58.3c17.7-32.1,40.9-59.3,69.8-81.9c4.5-3.5,9-7.6,15.6-4.6c6.2,2.8,6.2,8.6,6.3,14
			c0.8,37.5,18.5,68,39.6,97.2c19.7,27.3,40.8,53.7,56.3,83.9c15.3,29.9,24.4,61.4,27,94.9c0.6,7.5,3.7,15.1,2.8,22.3
			c-3,25.6-7.1,51-18,74.8C923.3,883.5,857.9,926.3,784.7,926.8z"/>
		<path class="st2" d="M845.4,839.2c0,32.7-21.2,60-50.8,65.7c-37,7-71.5-22.5-73-62.6c-0.4-10.7,0.7-21.2,3.6-31.5
			c0.5-1.7,0.7-3.8,2.8-4.3c2.3-0.5,2.9,1.8,3.8,3.2c6,9,13.6,15.4,24.5,17.4c10.3,1.9,15.8-2.2,16.3-12.6
			c0.5-12.1,0.6-24.3,2.5-36.3c2.4-15.4,8.6-29,17.6-41.5c1.7-2.3,4.3-6.8,6.8-0.5c7,17.4,19,31.7,28.9,47.3
			C839.1,800.5,845.6,818.8,845.4,839.2z"/>
	</g>
</g>
</svg>
