<?xml version="1.0" encoding="utf-8"?>
<!-- Generator: Adobe Illustrator 26.2.1, SVG Export Plug-In . SVG Version: 6.00 Build 0)  -->
<svg version="1.1" id="Livello_1" xmlns="http://www.w3.org/2000/svg" xmlns:xlink="http://www.w3.org/1999/xlink" x="0px" y="0px"
	 viewBox="0 0 1080 1080" style="enable-background:new 0 0 1080 1080;" xml:space="preserve">
<style type="text/css">
	.st0{display:none;fill:#47A5DD;}
	.st1{fill:url(#SVGID_1_);}
	.st2{display:none;}
	.st3{display:inline;fill:#FFFFFF;}
	.st4{display:inline;fill:#47A5DD;}
	.st5{fill:#C4CED0;}
	.st6{fill:#6E7475;}
	.st7{fill:#CBF4FE;}
	.st8{fill:#CCF4FE;}
	.st9{fill:#534A4D;}
	.st10{fill:#606F73;}
	.st11{fill:#C9F0FA;}
	.st12{fill:#C0D9E0;}
	.st13{fill:#5D6C70;}
	.st14{fill:#67797D;}
</style>
<circle class="st0" cx="540" cy="540" r="540"/>
<linearGradient id="SVGID_1_" gradientUnits="userSpaceOnUse" x1="4.024813e-02" y1="539.9755" x2="1080.0016" y2="539.9755">
	<stop  offset="0" style="stop-color:#2AFFC6"/>
	<stop  offset="0.1055" style="stop-color:#38F1C9"/>
	<stop  offset="0.3038" style="stop-color:#5CCDD1"/>
	<stop  offset="0.5736" style="stop-color:#9693DD"/>
	<stop  offset="0.9013" style="stop-color:#E643EF"/>
	<stop  offset="1" style="stop-color:#FF2AF4"/>
</linearGradient>
<path class="st1" d="M539.7,1079.2c-293.8,4.2-544.1-243.6-539.6-549C4.3,240.4,246.1,0,541.4,0.7c309.3,0.8,544.2,259,538.5,554.1
	C1074.3,840.7,833.4,1079.2,539.7,1079.2z"/>
<g class="st2">
	<path class="st3" d="M361.4,928C215.2,929,90.2,820.4,71.9,675.2c-8.5-67.4-0.7-133.2,28.4-195.4c11.3-24.3,27.1-45.6,49.1-61.5
		c18.6-13.4,29-9.1,34,13.1c5.3,23.7,13.2,46.3,26.5,66.9c9.7,15.1,22.2,27.2,38.1,35.2c12.1,6.1,14.3,4.3,14.8-9.4
		c1.6-48.8,4-97.4,15.6-145.1c7.7-32,20.1-62,35.9-90.8c27.5-49.9,63.7-92.4,108.6-127.5c7.1-5.5,14.1-11.8,24.2-7.1
		c9.6,4.4,9.7,13.4,9.9,21.8c1.2,58.3,28.8,105.8,61.7,151.3c30.7,42.5,63.5,83.7,87.7,130.7c23.9,46.5,38,95.7,42.1,147.8
		c0.9,11.7,5.7,23.5,4.4,34.8c-4.6,39.8-11.1,79.4-28,116.5C577.3,860.6,475.4,927.2,361.4,928z"/>
	<path class="st4" d="M456,791.7c0,50.8-33,93.5-79.1,102.3c-57.6,11-111.4-35-113.8-97.5c-0.6-16.6,1-33.1,5.6-49.1
		c0.7-2.6,1.2-6,4.4-6.7c3.6-0.7,4.5,2.8,6,5c9.3,13.9,21.2,24,38.2,27.1c16,3,24.7-3.4,25.4-19.6c0.9-18.9,0.9-37.8,3.8-56.6
		c3.7-23.9,13.4-45.2,27.4-64.6c2.6-3.6,6.7-10.6,10.6-0.8c10.8,27.2,29.6,49.4,45,73.7C446.1,731.3,456.2,759.9,456,791.7z"/>
</g>
<g>
	<path class="st5" d="M796.9,143.1c14.7,6,19.8,17.9,19.8,32.8c0,47.2,0.5,94.4-0.2,141.7c-0.4,26-7.6,50.9-17.4,74.8
		c-9.8,24-15.5,49-21,74.1c-5.5,25.4,7.4,43.7,23,61.8c53,61.3,56,130.1,28.8,203c-29.1,66.1-74.1,116.6-140.9,146.7
		c-35.1,15.8-71.6,23.3-109.8,22.6c-19.6-0.4-39.1-3.9-58.4-7.6c-15.2-5-31.4-6.9-45.6-14.9c-2.3-14.2,7.1-25,11.4-37.1
		c13.7-38.9,15.4-77.2-2.6-115.3c-5.2-11-11.7-21.1-20.6-29.6c-6.3-6.1-12.3-12.6-18.3-18.9c-37.1-38.7-40.9-85.3-33.6-135.2
		c5.9-40.6,20.9-78.4,34-116.8c7.2-21,10.6-42.5,10.6-64.7c-0.1-48.3-0.1-96.7,0-145c0-8.1-1.4-16.6,4.4-23.7
		c18.8-8.5,39.4-8.9,59.2-12c74.5-11.7,149.3-22.2,223.5-36C761.2,140.2,779,139,796.9,143.1z"/>
	<path class="st6" d="M460.5,193.1c-0.1,68.1,5,136.4-3.2,204.4c-4,33-20.7,62.4-29.5,94.1c-9.6,34.6-15.3,69.3-13.9,105.5
		c1.3,34.1,17.9,60.2,40.7,82c27.1,26,44,55.5,47.3,93c2.9,32.3-6.5,61.8-19.2,90.6c-2.4,5.5-6.5,10.4-4.9,17c0.3,0.4,1,0.9,1,1.3
		c0.5,34.4-2.5,68.3-15.6,100.6c-56.8-15.1-111.6-36.3-167.6-53.8c-19.4-6.1-38.6-12.5-58-18.8c-4.6-4.6-2.3-10.4-2.3-15.6
		c-0.1-242.4-0.1-484.8-0.1-727.1c0-18,0-17.9,17.6-17.9c6.6,0,13.1,0.2,19.6,1.6c54.7,11.8,109.7,21.9,164.6,33.2
		C445.4,184.8,454.6,185.1,460.5,193.1z"/>
	<path class="st7" d="M460.5,193.1C391.7,179,322.9,165,254.1,150.8c-10.2-2.1-17.4-3-17.4,12.2c0.4,246.5,0.3,492.9,0.4,739.4
		c0,2.2,0.3,4.4,0.5,6.6c-6.5-3.5-4-9.7-4-14.8c-0.1-243.8,0-487.5-0.3-731.3c0-11.3,2-15.5,14.9-17c52.5-6.2,104.7-14.7,157.1-21.8
		c60.5-8.2,121.3-14.5,181.5-24.4c27.6-4.5,51.7,4.3,76.9,10.4c44.4,10.9,88.8,22,133.2,33c-35.3-0.7-69.1,9.3-103.6,14.5
		c-56.1,8.4-112.1,17-168.2,25.5C503.6,186.3,482,189.8,460.5,193.1z"/>
	<path class="st7" d="M463.1,981.6c4.9-33.9,9.8-67.9,14.6-101.8c15.8-3.9,28.5,5.9,42.5,9.8c40,10,80.1,11.8,120.6,2.4
		c3.7-0.9,10.2-3.8,11.3,4.4c-18.2,12.4-39.2,18.8-59,27.7C549.9,943.6,506.4,962.5,463.1,981.6z"/>
	<path class="st8" d="M652.1,896.3c-12.3-6.1-24,0.7-35.9,1.7c-32.6,2.8-64.8,3.5-95.9-8.5c12.5,1.2,25,2.2,37.4,3.8
		c69.8,9,131.1-10,186.3-53.7c37.4-29.7,60.4-70,86.2-108.5c-3.1,31.6-15.6,61.1-20.3,92.4c-0.7,4.9-5.4,6.7-9.4,8.4
		C750.9,853.4,702.7,877.5,652.1,896.3z"/>
	<path class="st7" d="M586.2,347.6c-21.3,2.9-41.3-2-60.8-10.3c-26-11-40.9-37.7-20-66.3c20.1-27.6,48.1-43,78.9-53.6
		c28.9-9.9,58.8-16.1,90-15.1c17.8,0.5,34.7,3.1,51.4,9c37.3,13.1,45.5,46.8,18.5,76c-22.3,24-50,38.5-81,47.8
		C637.9,342.7,613,350.7,586.2,347.6z"/>
	<path class="st7" d="M625.5,738.1c6,0.9,12,1.6,16.3-4.3c5.9-8.8,12.6-16.6,14.6-28.2c1.7-10.1,12-15.1,21.8-12.5
		c9.6,2.5,8.3,10.8,5.1,17.8c5.1-5.5,9-12.5,12.4-20.1c3.5-7.8,9.1-14.1,19.2-9.1c15.5,3.4,25.4,19.4,22.3,35.9
		c-6.4,34.4-54.5,82.4-89.6,89.2c-16.6,3.2-30.7-7.5-31.8-24.9c-0.9-13.7-0.1-27.4,3.2-40.8C620.9,739.4,621.8,735.6,625.5,738.1z"
		/>
	<path class="st7" d="M789.9,348.1c-3.3,22.4-5.9,43.7-23.6,59.1c-13,11.4-26.1,11.8-36.8-1.7c-20-25.2-10.6-81.5,16.2-97.7
		c14.3-8.6,30.1-4.2,36.6,11.3C786.2,328.6,787.6,339.2,789.9,348.1z"/>
	<path class="st9" d="M715,681.7c-9.4,1.5-16.7,4.8-16.7,16.3c0,9.8-7.8,11.9-16,15c-0.7-6.4-1.4-12.1-2.1-18.7
		c-12.9,3.4-24,7-21.5,23.4c2,13.2-10.6,11.5-16.9,16.2c-11.5,2.6-14.1-0.3-10.6-12.4c5.6-19.3,22.6-34.2,21.2-56.1
		c10.9-8.9,23.3-9,36.3-6.4c5.1,6,12.1,9.2,18.9,12.7C711.5,673.6,718,674.3,715,681.7z"/>
	<path class="st10" d="M803.5,242.9c-2.3,10.4-1.5,24.6-15.7,25.1c-14.3,0.6-15.8-13.1-16.5-23.8c-0.8-12.1,2.8-25.6,16.2-26.2
		C801.6,217.5,800.6,232.7,803.5,242.9z"/>
	<path class="st11" d="M688.7,659c-12.1,2.1-24.2,4.3-36.3,6.4c-1.7-10.1-1.1-22.5,8.8-24.9C673.8,637.3,682.7,647.7,688.7,659z"/>
	<path class="st12" d="M625.5,738.1c-2.1,1-4.2,2-6.4,3c0-5.2,0.1-10.4,6.4-14.5C625.5,731,625.5,734.5,625.5,738.1z"/>
	<path class="st13" d="M553.7,287.9c0-33.1,0-32.9,33-38.9c36-6.6,72-13.5,107.8-20.9c8.1-1.7,10.7-0.4,10.5,8.1
		c-0.5,15.3-0.4,30.7,0,46.1c0.2,6.9-2.7,9.4-9.1,10.8c-43.8,9.4-87.6,19-131.3,28.7c-7.6,1.7-11.4-0.7-10.9-9
		C554,304.4,553.7,296.2,553.7,287.9z"/>
	<path class="st14" d="M751.4,356.2c-0.7,7.1-1.9,15-11.3,14.9c-7.7-0.1-11.2-7-11.5-13.9c-0.3-7.6,3-15.1,11.6-15.3
		C748,341.7,750.7,348.6,751.4,356.2z"/>
</g>
</svg>
