<?xml version="1.0" encoding="utf-8"?>
<!-- Generator: Adobe Illustrator 26.2.1, SVG Export Plug-In . SVG Version: 6.00 Build 0)  -->
<svg version="1.1" id="Livello_1" xmlns="http://www.w3.org/2000/svg" xmlns:xlink="http://www.w3.org/1999/xlink" x="0px" y="0px"
	 viewBox="0 0 1080 1080" style="enable-background:new 0 0 1080 1080;" xml:space="preserve">
<style type="text/css">
	.st0{fill:#FFFFFF;}
</style>
<g>
	<path class="st0" d="M650.7,1079.8c-131.2,0-252.4,0-373.7,0c-42.9,0-85.9,0.7-128.8-0.2c-81-1.6-136.3-56.3-136.5-136.8
		c-0.5-218.8-0.8-437.6,0.8-656.4c0.1-18.5,10.2-41.3,23.3-54.5c70.9-71.4,143.4-141,217.2-209.3c13.2-12.2,34.9-21.1,52.8-21.3
		c142.4-1.7,284.8-1.7,427.1-0.6c75.7,0.6,133.9,54.9,135.1,129c2.1,132.9,0.7,265.9,0.6,398.9c0,2.9-1.5,5.8-2.7,10
		c-18.6,0-37.1,0-59.7,0c0-11.6,0-22.8,0-34c0-117.3,0.1-234.5,0-351.8c-0.1-65.8-23.6-89.5-88.4-89.6c-121.4-0.1-242.9-0.1-364.3,0
		c-10.2,0-20.4,0.9-33.9,1.5c0,31.9,0.3,62-0.1,92c-1,84-55.4,139.7-139.1,142.1c-34.2,1-68.4,0.2-104.3,0.2
		c-0.6,13.9-1.5,24.1-1.5,34.3c-0.1,198.9-0.1,397.8,0,596.7c0,62.1,25,86.6,88.1,86.7c126.7,0.1,253.4,1,380-0.6
		c32.4-0.4,59.1,3.1,77.2,33.4C625.3,1059,635.7,1065.5,650.7,1079.8z"/>
	<path class="st0" d="M1068.6,838.9c1,130.5-100.9,235-230.3,236c-130.1,1-235-101.5-236-230.5c-0.9-130.7,100.8-234.8,230.3-235.7
		C963.4,607.6,1067.6,709.4,1068.6,838.9z M691,807v63.5h114.6v45.6c0,0,0,37.7,0,69c21.2,0,42.4,0,63.5,0c0-59.5,0-51.6,0-114.6
		h114.6c0-0.4,0-63.5,0-63.5H869.1V692.4h-63.5V807H691z"/>
	<path class="st0" d="M435.2,445.8c-81.6,0-163.2-0.3-244.9,0.2c-23.5,0.1-44.5-4.8-44.1-32c0.5-27,21.8-31.3,45.1-31.2
		c163.2,0.4,326.5,0.4,489.7,0c23-0.1,45,3.3,45.6,30.5c0.6,29.4-22.4,32.8-46.6,32.7C598.5,445.5,516.8,445.8,435.2,445.8z"/>
	<path class="st0" d="M438.1,508.7c80.6,0,161.1,0.3,241.7-0.2c24.1-0.2,47.2,2.8,46.8,32.4c-0.3,27.2-22.1,30.9-45.3,30.9
		c-163.2-0.4-326.5-0.4-489.7,0c-23.2,0.1-44.9-4.1-45.3-31c-0.5-29.6,22.9-32.4,46.9-32.2C274.9,509,356.5,508.7,438.1,508.7z"/>
	<path class="st0" d="M613.5,634.5c-14,20.2-23.6,36.3-35.5,50.5c-5.1,6.1-14.8,11.7-22.5,11.8c-125.3,0.7-250.6,1.2-375.9-0.9
		c-11.5-0.2-30-17.1-32.5-28.9c-4.2-19.8,11.4-32.3,32.6-32.4C322.7,634.4,465.6,634.5,613.5,634.5z"/>
	<path class="st0" d="M552.2,948.5c-126.5,0-250.8,0.2-375-0.2c-20.9-0.1-34-11-33.1-32.9c0.8-20.3,14-29.5,33.3-29.6
		c118.9-0.2,237.9-0.1,358.4-0.1C541.4,906.9,546.5,926.6,552.2,948.5z"/>
	<path class="st0" d="M545,760.2c-3.5,21.8-6.6,41-10.2,62.7c-74.5,0-147.5,0-220.4,0c-45,0-90.1,2-134.8-1.5
		c-12.1-0.9-22.8-18.7-34.2-28.8c10.5-10.8,20.8-30.8,31.5-31C299.1,759.4,421.3,760.2,545,760.2z"/>
	<path class="st0" d="M558.3,257.3c42.9,0,85.8,0.3,128.7-0.1c22.7-0.2,41.2,6.4,40.9,31.9c-0.3,25.6-19.3,31.3-41.7,31.2
		c-87.9-0.4-175.8-0.3-263.7,0c-22.5,0.1-40.8-5.6-40.5-32c0.3-26.6,19.2-31.3,41.4-31.1C468.3,257.6,513.3,257.3,558.3,257.3z"/>
</g>
</svg>
